<?xml version="1.0" encoding="iso-8859-1"?>
<!-- Generator: Adobe Illustrator 19.0.0, SVG Export Plug-In . SVG Version: 6.00 Build 0)  -->
<svg version="1.1" id="Capa_1" fill="#8ebf57" xmlns="http://www.w3.org/2000/svg" xmlns:xlink="http://www.w3.org/1999/xlink" x="0px" y="0px"
	 viewBox="0 0 512 512" style="enable-background:new 0 0 512 512;" xml:space="preserve">
<g>
	<g>
		<path d="M497,482h-45V180h45c5.593,0,10.722-3.112,13.305-8.073s2.191-10.947-1.017-15.529l-105-150
			C401.481,2.388,396.895,0,392,0c-4.895,0-9.481,2.388-12.288,6.398l-105,150c-3.208,4.582-3.599,10.568-1.016,15.529
			S281.407,180,287,180h45v302h-30V255c0-8.284-6.716-15-15-15h-92c-8.284,0-15,6.716-15,15v227h-30V345c0-8.284-6.716-15-15-15H45
			c-8.284,0-15,6.716-15,15v137H15c-8.284,0-15,6.716-15,15s6.716,15,15,15c5.392,0,470.698,0,482,0c8.284,0,15-6.716,15-15
			S505.284,482,497,482z M120,482H60V360h60V482z M272,482h-62V270h62V482z M422,165v317h-60V165c0-8.284-6.716-15-15-15h-31.19
			L392,41.157L468.19,150H437C428.716,150,422,156.716,422,165z"/>
	</g>
</g>
<g>
</g>
<g>
</g>
<g>
</g>
<g>
</g>
<g>
</g>
<g>
</g>
<g>
</g>
<g>
</g>
<g>
</g>
<g>
</g>
<g>
</g>
<g>
</g>
<g>
</g>
<g>
</g>
<g>
</g>
</svg>
