<?xml version="1.0" encoding="iso-8859-1"?>
<!-- Generator: Adobe Illustrator 19.0.0, SVG Export Plug-In . SVG Version: 6.00 Build 0)  -->
<svg version="1.1" id="Capa_1" fill="#8ebf57" xmlns="http://www.w3.org/2000/svg" xmlns:xlink="http://www.w3.org/1999/xlink" x="0px" y="0px"
	 viewBox="0 0 512 512" style="enable-background:new 0 0 512 512;" xml:space="preserve">
<g>
	<g>
		<path d="M467,31H300.359c-10.406-12.059-23.124-22.153-37.65-29.417c-4.224-2.111-9.193-2.111-13.417,0
			C234.765,8.847,222.047,18.941,211.641,31H45C20.187,31,0,51.187,0,76v331c0,24.813,20.187,45,45,45h136v30h-45
			c-8.284,0-15,6.716-15,15s6.716,15,15,15h240c8.284,0,15-6.716,15-15s-6.716-15-15-15h-45v-30h136c24.813,0,45-20.187,45-45V76
			C512,51.187,491.813,31,467,31z M256,32.137c11.252,6.883,20.61,16.306,24.107,21.847C272.955,58.514,264.59,61,256,61
			c-8.59,0-16.955-2.486-24.107-7.017C235.369,48.476,244.708,39.044,256,32.137z M211,113.082c0-11.452,2.088-22.647,5.957-33.092
			C228.623,87.096,242.131,91,256,91s27.377-3.904,39.043-11.01c3.869,10.445,5.957,21.64,5.957,33.092c0,5.595,0,122.489,0,127.918
			h-30v-45c0-8.284-6.716-15-15-15s-15,6.716-15,15v45h-30C211,235.542,211,118.629,211,113.082z M301,482h-90v-30h90V482z M482,407
			c0,8.271-6.729,15-15,15H45c-8.271,0-15-6.729-15-15v-15h452V407z M482,362H301v-46c0-8.284-6.716-15-15-15s-15,6.716-15,15v46
			h-30v-46c0-8.284-6.716-15-15-15s-15,6.716-15,15v46H30V76c0-8.271,6.729-15,15-15h147.417C185.052,77.106,181,94.848,181,113.082
			v46.705l-55.606,55.606C122.581,218.207,121,222.022,121,226v60c0,5.199,2.692,10.027,7.114,12.76
			c4.431,2.738,9.954,2.977,14.594,0.657L199.541,271H241v15c0,8.284,6.716,15,15,15s15-6.716,15-15v-15h41.459l56.833,28.417
			c4.659,2.33,10.181,2.071,14.594-0.657c4.422-2.733,7.114-7.561,7.114-12.76v-60c0-3.978-1.581-7.793-4.394-10.606L331,159.787
			v-46.705c0-18.234-4.052-35.976-11.417-52.082H467c8.271,0,15,6.729,15,15V362z M181,202.213v44.516l-30,15v-29.516L181,202.213z
			 M331,246.729v-44.516l30,30v29.516L331,246.729z"/>
	</g>
</g>
<g>
	<g>
		<circle cx="256" cy="136" r="15"/>
	</g>
</g>
<g>
</g>
<g>
</g>
<g>
</g>
<g>
</g>
<g>
</g>
<g>
</g>
<g>
</g>
<g>
</g>
<g>
</g>
<g>
</g>
<g>
</g>
<g>
</g>
<g>
</g>
<g>
</g>
<g>
</g>
</svg>
